# xmcd
#
# Track frame offsets: 
#        150
#        18780
#        35867
#        51550
#        70377
#        86855
#        110387
#        127992
#        148340
#        171947
#        192062
#        211482
#        231412
#        252207
#
# Disc length: 3623 seconds
#
# Revision: 2
# Processed by: cddbd v1.5.2PL0 Copyright (c) Steve Scherf et al.
# Submitted via: ExactAudioCopy v1.0b3
#
DISCID=d50e250e
DTITLE=沢田研二 - Julie Special 2
DYEAR=0
DGENRE=J-Pop
TTITLE0=コバルトの季節の中で
TTITLE1=さよならをいう気もない
TTITLE2=勝手にしやがれ
TTITLE3=MEMORIES
TTITLE4=憎みきれないろくでなし
TTITLE5=サムライ
TTITLE6=ダーリング
TTITLE7=ヤマトより愛をこめて
TTITLE8=LOVE
TTITLE9=カサブランカ・ダンディ
TTITLE10=OH!ギャル
TTITLE11=ロンリー・ウルフ
TTITLE12=TOKIO
TTITLE13=恋のバッド・チューニング
EXTD=
EXTT0=
EXTT1=
EXTT2=
EXTT3=
EXTT4=
EXTT5=
EXTT6=
EXTT7=
EXTT8=
EXTT9=
EXTT10=
EXTT11=
EXTT12=
EXTT13=
PLAYORDER=
